<svg width="60" height="60" viewBox="0 0 60 60" fill="none" xmlns="http://www.w3.org/2000/svg">
<path d="M7.85192 41.403C7.16616 42.0928 6.78125 43.026 6.78125 43.9987C6.78125 44.9714 7.16616 45.9046 7.85192 46.5944L15.5471 54.2896C16.2369 54.9753 17.1701 55.3602 18.1428 55.3602C19.1155 55.3602 20.0487 54.9753 20.7385 54.2896L34.3983 40.6298L21.5117 27.7432L7.85192 41.403Z" stroke="#1E1E1E" stroke-width="2" stroke-linecap="round" stroke-linejoin="round"/>
<path d="M23.5 29.7319L44.6709 8.56107C45.1886 8.05018 45.8461 7.7041 46.5604 7.56649C47.2746 7.42888 48.0136 7.50592 48.6841 7.78787C49.3565 8.06409 49.9321 8.53315 50.3383 9.13595C50.7445 9.73875 50.9633 10.4483 50.9669 11.1752V19.1649C50.9697 19.6495 50.8768 20.1298 50.6936 20.5784C50.5104 21.027 50.2404 21.435 49.8991 21.779L32.5574 38.7894M32.7047 20.5272L41.9094 29.7319" stroke="#1E1E1E" stroke-width="2" stroke-linecap="round" stroke-linejoin="round"/>
</svg>
