<svg width="60" height="60" viewBox="0 0 60 60" fill="none" xmlns="http://www.w3.org/2000/svg">
<path d="M37.5 10L30 15L22.5 10M37.5 10C38.9675 11.2725 42.325 13.2325 42.49 15.365C42.565 16.2875 42.18 16.7925 41.405 17.8025C39.72 20.005 37.5 21.3 37.5 25H22.5C22.5 21.3025 20.28 20.005 18.595 17.8025C17.8225 16.7925 17.435 16.29 17.5075 15.365C17.675 13.2325 21.035 11.275 22.5 10M37.5 10V5M22.5 10V5M23.75 25H36.25M45 47.5C50 47.5 52.5 42.0675 52.5 42.0675C45.4375 37.4775 41.25 32.085 38.9675 28.0125C38.1 26.4625 37.665 25.6875 37.08 25.3425C36.495 25 35.7125 25 34.1475 25H25.85C24.285 25 23.5025 25 22.9175 25.3425C22.3325 25.685 21.8975 26.46 21.03 28.0125C18.75 32.085 14.5625 37.475 7.5 42.0675C7.5 42.0675 10 47.5 15 47.5" stroke="#5876F9" stroke-width="2" stroke-linecap="round" stroke-linejoin="round"/>
<path d="M34.2644 35C35.1144 36.99 38.8019 41.6775 42.8519 45.775C44.3444 47.2875 45.0919 48.0425 44.9894 49.325C44.8894 50.605 44.2644 51.0325 43.0144 51.8875C40.1744 53.825 35.8394 55 29.9994 55C24.1594 55 19.8244 53.8275 16.9819 51.8875C15.7319 51.0325 15.1069 50.605 15.0069 49.325C14.9069 48.0425 15.6544 47.2875 17.1469 45.775C21.1969 41.6775 24.8869 36.99 25.7344 35" stroke="#5876F9" stroke-width="2" stroke-linecap="round" stroke-linejoin="round"/>
</svg>
