<svg width="60" height="60" viewBox="0 0 60 60" fill="none" xmlns="http://www.w3.org/2000/svg">
<path d="M30 15V45M37.5 23.75C37.5 20.3 34.1425 17.5 30 17.5C25.8575 17.5 22.5 20.3 22.5 23.75C22.5 27.2 25.8575 30 30 30C34.1425 30 37.5 32.8 37.5 36.25C37.5 39.7 34.1425 42.5 30 42.5C25.8575 42.5 22.5 39.7 22.5 36.25" stroke="#5876F9" stroke-width="2" stroke-linecap="round"/>
<path d="M17.5 8.34503C21.2986 6.14684 25.6112 4.9928 30 5.00003C43.8075 5.00003 55 16.1925 55 30C55 43.8075 43.8075 55 30 55C16.1925 55 5 43.8075 5 30C5 25.4475 6.2175 21.175 8.345 17.5" stroke="#5876F9" stroke-width="2" stroke-linecap="round"/>
</svg>
