<svg width="60" height="60" viewBox="0 0 60 60" fill="none" xmlns="http://www.w3.org/2000/svg">
<path d="M20.3454 21.2565V31.2565M15.3454 26.2565H25.3454M40.0779 9.99902H19.9254C16.4648 9.99969 13.1461 11.3749 10.6993 13.8222C8.25249 16.2694 6.87793 19.5884 6.87793 23.049V43.7115C6.87793 48.899 13.2104 51.424 16.7829 47.664L24.2229 39.829H35.7829L42.9704 48.479C46.4054 52.614 53.1279 50.184 53.1279 44.8115V23.0465C53.1273 19.5863 51.7524 16.268 49.3057 13.8213C46.8589 11.3745 43.5381 9.99969 40.0779 9.99902Z" stroke="#5876F9" stroke-width="2" stroke-linecap="round" stroke-linejoin="round"/>
<path d="M47.5 26.2568C48.8807 26.2568 50 25.1375 50 23.7568C50 22.3761 48.8807 21.2568 47.5 21.2568C46.1193 21.2568 45 22.3761 45 23.7568C45 25.1375 46.1193 26.2568 47.5 26.2568Z" fill="#5876F9"/>
<path d="M50 31.7568C51.3807 31.7568 52.5 30.6375 52.5 29.2568C52.5 27.8761 51.3807 26.7568 50 26.7568C48.6193 26.7568 47.5 27.8761 47.5 29.2568C47.5 30.6375 48.6193 31.7568 50 31.7568Z" fill="#5876F9"/>
</svg>
