<svg width="60" height="60" viewBox="0 0 60 60" fill="none" xmlns="http://www.w3.org/2000/svg">
<path d="M20 25H40M17.5 35H20M40 35H42.5" stroke="#1E1E1E" stroke-width="2" stroke-linecap="round" stroke-linejoin="round"/>
<path d="M7.5 45V28.525C7.50051 27.8485 7.63829 27.1792 7.905 26.5575L13.7025 13.0325C14.0876 12.1328 14.7282 11.3659 15.545 10.8269C16.3618 10.2878 17.3189 10.0003 18.2975 10H41.7025C42.6809 10.0001 43.6377 10.2872 44.4545 10.8258C45.2712 11.3644 45.912 12.1308 46.2975 13.03L52.0975 26.555C52.364 27.1784 52.501 27.8495 52.5 28.5275V45M7.5 45V51C7.5 51.3978 7.65804 51.7794 7.93934 52.0607C8.22064 52.342 8.60218 52.5 9 52.5H16C16.3978 52.5 16.7794 52.342 17.0607 52.0607C17.342 51.7794 17.5 51.3978 17.5 51V45M7.5 45H17.5M52.5 45V51C52.5 51.3978 52.342 51.7794 52.0607 52.0607C51.7794 52.342 51.3978 52.5 51 52.5H44C43.803 52.5 43.608 52.4612 43.426 52.3858C43.244 52.3104 43.0786 52.1999 42.9393 52.0607C42.8001 51.9214 42.6896 51.756 42.6142 51.574C42.5388 51.392 42.5 51.197 42.5 51V45M52.5 45H42.5M17.5 45H42.5" stroke="#1E1E1E" stroke-width="2"/>
</svg>
