<svg width="60" height="60" viewBox="0 0 60 60" fill="none" xmlns="http://www.w3.org/2000/svg">
<path d="M27.5 42.5H20C12.93 42.5 9.3925 42.5 7.1975 40.3025C5 38.1075 5 34.57 5 27.5V25C5 15.5725 5 10.8575 7.93 7.93C10.86 5.0025 15.5725 5 25 5H38.75C44.5875 5 47.505 5 49.715 6.18C51.4591 7.11231 52.8877 8.54085 53.82 10.285C55 12.495 55 15.4125 55 21.25" stroke="#1E1E1E" stroke-width="2" stroke-linecap="round"/>
<path d="M35 37.5C35 32.785 35 30.43 36.465 28.965C37.93 27.5 40.285 27.5 45 27.5C49.715 27.5 52.07 27.5 53.535 28.965C55 30.43 55 32.785 55 37.5V45C55 49.715 55 52.07 53.535 53.535C52.07 55 49.715 55 45 55C40.285 55 37.93 55 36.465 53.535C35 52.07 35 49.715 35 45V37.5Z" stroke="#1E1E1E" stroke-width="2"/>
<path d="M47.5 50H42.5M20 55H27.5V42.5M27.5 32.5H5" stroke="#1E1E1E" stroke-width="2" stroke-linecap="round"/>
</svg>
