<svg width="60" height="60" viewBox="0 0 60 60" fill="none" xmlns="http://www.w3.org/2000/svg">
<path d="M37.5 16.25H22.5M37.5 16.25C44.57 16.25 48.1075 16.25 50.3025 18.4475C52.5 20.6425 52.5 24.18 52.5 31.25V37.5C52.5 44.57 52.5 48.1075 50.3025 50.3025C48.1075 52.5 44.57 52.5 37.5 52.5H22.5C15.43 52.5 11.8925 52.5 9.6975 50.3025C7.5 48.1075 7.5 44.57 7.5 37.5V31.25C7.5 24.18 7.5 20.6425 9.6975 18.4475C11.8925 16.25 15.43 16.25 22.5 16.25M37.5 16.25V15C37.5 11.4625 37.5 9.695 36.4 8.6C35.3025 7.5 33.5375 7.5 30 7.5C26.4625 7.5 24.695 7.5 23.6 8.6C22.5 9.6975 22.5 11.465 22.5 15V16.25M17.5 16.25V52.5M42.5 16.25V52.5" stroke="#5876F9" stroke-width="2" stroke-linecap="round" stroke-linejoin="round"/>
</svg>
